<svg xmlns="http://www.w3.org/2000/svg" width="262.97" height="282.633" viewBox="0 0 262.97 282.633">
  <g id="eCommerce-Icons-Dark_User_Action_with_Link_to_Big_Data" data-name="eCommerce-Icons-Dark_User Action with Link to Big Data" transform="translate(-146.03 -108.08)">
    <circle id="Ellipse_9261" data-name="Ellipse 9261" cx="101.37" cy="101.37" r="101.37" transform="translate(157.73 159.43)" fill="#D2AC47"/>
    <path id="Path_84" data-name="Path 84" d="M340.35,199.55a3.47,3.47,0,0,1-2.72-1.3A98.43,98.43,0,0,0,271,162.07a100.078,100.078,0,0,0-14.26-.48,3.5,3.5,0,1,1-.27-7,106.7,106.7,0,0,1,15.26.52,105.31,105.31,0,0,1,71.33,38.74,3.5,3.5,0,0,1-2.72,5.7Z" fill="#3b3f3e"/>
    <path id="Path_85" data-name="Path 85" d="M343.34,203h-.28l-18.63-1.48a3.511,3.511,0,0,1,.56-7l15.14,1.21,1.21-15.15a3.511,3.511,0,0,1,7,.56l-1.48,18.63a3.51,3.51,0,0,1-3.49,3.23Z" fill="#3b3f3e"/>
    <path id="Path_86" data-name="Path 86" d="M164.75,303.43a3.48,3.48,0,0,1-3.26-2.23,105.31,105.31,0,0,1,1.73-81.14,3.5,3.5,0,1,1,6.411,2.81A98.37,98.37,0,0,0,168,298.66a3.5,3.5,0,0,1-2,4.53,3.36,3.36,0,0,1-1.25.24Z" fill="#3b3f3e"/>
    <path id="Path_87" data-name="Path 87" d="M175.35,238a3.5,3.5,0,0,1-3.23-2.151l-5.87-14-14,5.87a3.5,3.5,0,1,1-2.7-6.46L166.77,214a3.5,3.5,0,0,1,4.58,1.88l7.22,17.24a3.5,3.5,0,0,1-1.87,4.58,3.61,3.61,0,0,1-1.35.3Z" fill="#3b3f3e"/>
    <path id="Path_88" data-name="Path 88" d="M270.91,364.36a3.5,3.5,0,0,1-.55-6.95,98.4,98.4,0,0,0,64.53-39.77,3.5,3.5,0,1,1,5.68,4.1,105.33,105.33,0,0,1-69.1,42.58,3.6,3.6,0,0,1-.56.04Z" fill="#3b3f3e"/>
    <path id="Path_89" data-name="Path 89" d="M281.85,375.8a3.52,3.52,0,0,1-2-.61l-15.42-10.56a3.51,3.51,0,0,1-.91-4.87l10.56-15.42a3.515,3.515,0,1,1,5.78,4l-8.59,12.54,12.54,8.58a3.5,3.5,0,0,1-2,6.39Z" fill="#3b3f3e"/>
    <path id="Path_90" data-name="Path 90" d="M166.46,361.26v21.36a.76.76,0,0,0,.15.45c1.53,2.32,14.78,4.14,30.9,4.14s29.36-1.82,30.89-4.14a.76.76,0,0,0,.15-.45V361.26Z" fill="#fff"/>
    <path id="Path_91" data-name="Path 91" d="M197.51,390.71a168.391,168.391,0,0,1-21.39-1.23c-9.14-1.23-11.38-2.88-12.43-4.48a4.28,4.28,0,0,1-.73-2.38V361.26a3.5,3.5,0,0,1,3.5-3.5h62.09a3.5,3.5,0,0,1,3.5,3.5v21.36a4.32,4.32,0,0,1-.74,2.4c-1,1.58-3.27,3.23-12.42,4.46a168.228,168.228,0,0,1-21.38,1.23ZM170,381.09c3,1.08,12.5,2.62,27.55,2.62s24.54-1.54,27.54-2.62V364.76H170ZM225.91,380.71Zm-56.73,0" fill="#3b3f3e"/>
    <ellipse id="Ellipse_9262" data-name="Ellipse 9262" cx="31.04" cy="4.58" rx="31.04" ry="4.58" transform="translate(166.47 356.68)" fill="#fff"/>
    <path id="Path_92" data-name="Path 92" d="M197.51,369.34A161.79,161.79,0,0,1,175.05,368c-7.26-1.07-12.08-2.62-12.08-6.7s4.82-5.63,12.08-6.7a161.8,161.8,0,0,1,22.46-1.38A162,162,0,0,1,220,354.56c7.25,1.07,12.08,2.62,12.08,6.7s-4.83,5.63-12.08,6.7a162,162,0,0,1-22.49,1.38Zm28.37-6.16Zm-48.14-1.92a159.552,159.552,0,0,0,19.77,1.08,159.5,159.5,0,0,0,19.76-1.08,159.5,159.5,0,0,0-19.76-1.08,159.569,159.569,0,0,0-19.77,1.08Z" fill="#3b3f3e"/>
    <path id="Path_93" data-name="Path 93" d="M166.46,339.64V361a.81.81,0,0,0,.15.45c1.53,2.32,14.78,4.14,30.9,4.14s29.36-1.82,30.89-4.14a.81.81,0,0,0,.15-.45V339.64Z" fill="#fff"/>
    <path id="Path_94" data-name="Path 94" d="M197.51,369.09a168.385,168.385,0,0,1-21.39-1.23c-9.14-1.24-11.38-2.88-12.43-4.48A4.3,4.3,0,0,1,163,361V339.64a3.5,3.5,0,0,1,3.5-3.5h62.09a3.5,3.5,0,0,1,3.5,3.5V361a4.35,4.35,0,0,1-.74,2.4c-1,1.58-3.27,3.22-12.42,4.46A168.23,168.23,0,0,1,197.51,369.09ZM170,359.47c3,1.07,12.5,2.62,27.55,2.62s24.54-1.55,27.54-2.62V343.14H170ZM225.91,359.09Zm-56.73,0" fill="#3b3f3e"/>
    <ellipse id="Ellipse_9263" data-name="Ellipse 9263" cx="31.04" cy="4.58" rx="31.04" ry="4.58" transform="translate(166.47 335.06)" fill="#fff"/>
    <path id="Path_95" data-name="Path 95" d="M197.51,347.72a161.784,161.784,0,0,1-22.46-1.38c-7.26-1.07-12.08-2.62-12.08-6.7s4.82-5.64,12.08-6.71a161.794,161.794,0,0,1,22.46-1.38A162,162,0,0,1,220,332.93c7.25,1.07,12.08,2.62,12.08,6.71s-4.83,5.63-12.08,6.7a162,162,0,0,1-22.49,1.38ZM225.88,341.55Zm-48.14-1.91a161.572,161.572,0,0,0,19.77,1.08,161.487,161.487,0,0,0,19.76-1.08,159.163,159.163,0,0,0-19.76-1.09,159.213,159.213,0,0,0-19.77,1.09Z" fill="#3b3f3e"/>
    <path id="Path_96" data-name="Path 96" d="M166.46,318v21.37a.81.81,0,0,0,.15.45c1.53,2.32,14.78,4.13,30.9,4.13s29.36-1.81,30.89-4.13a.81.81,0,0,0,.15-.45V318Z" fill="#fff"/>
    <path id="Path_97" data-name="Path 97" d="M197.51,347.46a166.564,166.564,0,0,1-21.39-1.23c-9.14-1.23-11.38-2.88-12.43-4.48a4.27,4.27,0,0,1-.73-2.37V318a3.5,3.5,0,0,1,3.5-3.5h62.09a3.5,3.5,0,0,1,3.5,3.5v21.37a4.24,4.24,0,0,1-.74,2.39c-1,1.58-3.27,3.23-12.42,4.46a166.385,166.385,0,0,1-21.38,1.24ZM170,337.84c3,1.08,12.5,2.62,27.55,2.62s24.54-1.54,27.54-2.62V321.51H170Zm-.82-.38h0Z" fill="#3b3f3e"/>
    <ellipse id="Ellipse_9264" data-name="Ellipse 9264" cx="31.04" cy="4.58" rx="31.04" ry="4.58" transform="translate(166.47 313.43)" fill="#fff"/>
    <path id="Path_98" data-name="Path 98" d="M197.51,326.1a161.789,161.789,0,0,1-22.46-1.38C167.79,323.65,163,322.1,163,318s4.82-5.63,12.08-6.7a161.79,161.79,0,0,1,22.46-1.38A162.006,162.006,0,0,1,220,311.31c7.25,1.07,12.08,2.62,12.08,6.7s-4.83,5.64-12.08,6.71a162.007,162.007,0,0,1-22.49,1.38ZM225.88,319.93ZM177.74,318a159.212,159.212,0,0,0,19.77,1.09A159.164,159.164,0,0,0,217.27,318a161.493,161.493,0,0,0-19.76-1.08A161.547,161.547,0,0,0,177.74,318Z" fill="#3b3f3e"/>
    <circle id="Ellipse_9265" data-name="Ellipse 9265" cx="3.1" cy="3.1" r="3.1" transform="translate(215.79 328.85)" fill="#3b3f3e"/>
    <path id="Path_99" data-name="Path 99" d="M255.83,183.39c0,30.52-106.3,31.12-106.3,0,0-10.38,11.05-19.42,27.38-24.13a32.73,32.73,0,0,0,53,.45C245.45,164.52,255.83,173.32,255.83,183.39Z" fill="#fff"/>
    <path id="Path_100" data-name="Path 100" d="M202.29,210c-14.29,0-27.63-2.13-37.56-6-15.46-6-18.7-14.54-18.7-20.63,0-11.64,11.46-22.18,29.91-27.49a3.5,3.5,0,0,1,3.82,1.33,29.24,29.24,0,0,0,47.36.4,3.51,3.51,0,0,1,3.85-1.26c17.76,5.5,28.36,15.6,28.36,27,0,6.05-3.29,14.54-19,20.57C230.2,207.86,216.69,210,202.29,210Zm-26.68-46.69C161.82,167.8,153,175.54,153,183.39c0,12.74,25.38,19.62,49.26,19.62,13.37,0,26.31-2,35.53-5.58,6.62-2.54,14.51-7.05,14.51-14,0-7.64-8.05-15-21.17-19.59a36.25,36.25,0,0,1-55.55-.48Z" fill="#3b3f3e"/>
    <circle id="Ellipse_9266" data-name="Ellipse 9266" cx="25.04" cy="25.04" r="25.04" transform="translate(177.64 111.58)" fill="#fff"/>
    <path id="Path_101" data-name="Path 101" d="M202.68,165.16a28.54,28.54,0,1,1,28.54-28.54A28.54,28.54,0,0,1,202.68,165.16Zm0-50.07a21.54,21.54,0,1,0,21.54,21.53,21.54,21.54,0,0,0-21.54-21.53Z" fill="#3b3f3e"/>
    <circle id="Ellipse_9267" data-name="Ellipse 9267" cx="43.22" cy="43.22" r="43.22" transform="translate(319.05 217.58)" fill="#fff"/>
    <path id="Path_102" data-name="Path 102" d="M362.27,307.52A46.72,46.72,0,1,1,409,260.8,46.718,46.718,0,0,1,362.27,307.52Zm0-86.44A39.72,39.72,0,1,0,402,260.8a39.72,39.72,0,0,0-39.73-39.723Z" fill="#3b3f3e"/>
    <path id="Path_103" data-name="Path 103" d="M363.79,272.51a10.06,10.06,0,0,1-9.44-6.64,3.5,3.5,0,1,1,6.58-2.37,3,3,0,0,0,1.57,1.72,3.08,3.08,0,0,0,2.33.11l22.11-8a3.044,3.044,0,0,0,.26-5.62,3.06,3.06,0,0,0-2.32-.11l-11.17,4a3.5,3.5,0,1,1-2.37-6.59l11.17-4a10.038,10.038,0,1,1,6.8,18.89l-22.11,8a10.09,10.09,0,0,1-3.41.61Z" fill="#3b3f3e"/>
    <path id="Path_104" data-name="Path 104" d="M340,279.69a10,10,0,0,1-3.39-19.49l22.11-8a10,10,0,0,1,12.85,6,3.5,3.5,0,1,1-6.58,2.37,3,3,0,0,0-3.89-1.83l-22.12,8a3.044,3.044,0,0,0-.26,5.62,3.06,3.06,0,0,0,2.32.11l9.28-3.35a3.5,3.5,0,0,1,2.37,6.59l-9.28,3.34A10,10,0,0,1,340,279.69Z" fill="#3b3f3e"/>
  </g>
</svg>
