<?xml version="1.0" encoding="UTF-8" standalone="no"?>
<!-- Created with Inkscape (http://www.inkscape.org/) -->

<svg
   xmlns:dc="http://purl.org/dc/elements/1.1/"
   xmlns:cc="http://creativecommons.org/ns#"
   xmlns:rdf="http://www.w3.org/1999/02/22-rdf-syntax-ns#"
   xmlns:svg="http://www.w3.org/2000/svg"
   xmlns="http://www.w3.org/2000/svg"
   xmlns:sodipodi="http://sodipodi.sourceforge.net/DTD/sodipodi-0.dtd"
   xmlns:inkscape="http://www.inkscape.org/namespaces/inkscape"
   width="350"
   height="150"
   viewBox="0 0 350 150"
   id="svg8539"
   version="1.1"
   inkscape:version="0.91 r13725"
   sodipodi:docname="gcf-green-climate-fund.svg"
   inkscape:export-filename="/Users/alex/Dropbox (UNjobfinder)/UNjobfinder Team Folder/Partner logos/gcf-green-climate-fund.png"
   inkscape:export-xdpi="90"
   inkscape:export-ydpi="90">
  <defs
     id="defs8541">
    <clipPath
       clipPathUnits="userSpaceOnUse"
       id="clipPath490">
      <path
         d="m 0,841.65 0,-842.27958 595.32,0 0,842.27958"
         id="path492"
         inkscape:connector-curvature="0" />
    </clipPath>
    <clipPath
       clipPathUnits="userSpaceOnUse"
       id="clipPath480">
      <path
         d="m 0,841.65 0,-842.27958 595.32,0 0,842.27958"
         id="path482"
         inkscape:connector-curvature="0" />
    </clipPath>
    <clipPath
       clipPathUnits="userSpaceOnUse"
       id="clipPath470">
      <path
         d="m 0,841.65 0,-842.27958 595.32,0 0,842.27958"
         id="path472"
         inkscape:connector-curvature="0" />
    </clipPath>
    <clipPath
       clipPathUnits="userSpaceOnUse"
       id="clipPath460">
      <path
         d="m 0,841.65 0,-842.27958 595.32,0 0,842.27958"
         id="path462"
         inkscape:connector-curvature="0" />
    </clipPath>
    <clipPath
       clipPathUnits="userSpaceOnUse"
       id="clipPath450">
      <path
         d="m 0,841.65 0,-842.27958 595.32,0 0,842.27958"
         id="path452"
         inkscape:connector-curvature="0" />
    </clipPath>
    <clipPath
       clipPathUnits="userSpaceOnUse"
       id="clipPath440">
      <path
         d="m 0,841.65 0,-842.27958 595.32,0 0,842.27958"
         id="path442"
         inkscape:connector-curvature="0" />
    </clipPath>
    <clipPath
       clipPathUnits="userSpaceOnUse"
       id="clipPath430">
      <path
         d="m 0,841.65 0,-842.27958 595.32,0 0,842.27958"
         id="path432"
         inkscape:connector-curvature="0" />
    </clipPath>
    <clipPath
       clipPathUnits="userSpaceOnUse"
       id="clipPath420">
      <path
         d="m 0,841.65 0,-842.27958 595.32,0 0,842.27958"
         id="path422"
         inkscape:connector-curvature="0" />
    </clipPath>
    <clipPath
       clipPathUnits="userSpaceOnUse"
       id="clipPath410">
      <path
         d="m 0,841.65 0,-842.27958 595.32,0 0,842.27958"
         id="path412"
         inkscape:connector-curvature="0" />
    </clipPath>
    <clipPath
       clipPathUnits="userSpaceOnUse"
       id="clipPath400">
      <path
         d="m 0,841.65 0,-842.27958 595.32,0 0,842.27958"
         id="path402"
         inkscape:connector-curvature="0" />
    </clipPath>
    <clipPath
       clipPathUnits="userSpaceOnUse"
       id="clipPath390">
      <path
         d="m 0,841.65 0,-842.27958 595.32,0 0,842.27958"
         id="path392"
         inkscape:connector-curvature="0" />
    </clipPath>
    <clipPath
       clipPathUnits="userSpaceOnUse"
       id="clipPath380">
      <path
         d="m 0,841.65 0,-842.27958 595.32,0 0,842.27958"
         id="path382"
         inkscape:connector-curvature="0" />
    </clipPath>
    <clipPath
       clipPathUnits="userSpaceOnUse"
       id="clipPath370">
      <path
         d="m 0,841.65 0,-842.27958 595.32,0 0,842.27958"
         id="path372"
         inkscape:connector-curvature="0" />
    </clipPath>
    <clipPath
       clipPathUnits="userSpaceOnUse"
       id="clipPath360">
      <path
         d="m 0,841.65 0,-842.27958 595.32,0 0,842.27958"
         id="path362"
         inkscape:connector-curvature="0" />
    </clipPath>
    <clipPath
       clipPathUnits="userSpaceOnUse"
       id="clipPath350">
      <path
         d="m 0,841.65 0,-842.27958 595.32,0 0,842.27958"
         id="path352"
         inkscape:connector-curvature="0" />
    </clipPath>
    <clipPath
       clipPathUnits="userSpaceOnUse"
       id="clipPath340">
      <path
         d="m 0,841.65 0,-842.27958 595.32,0 0,842.27958"
         id="path342"
         inkscape:connector-curvature="0" />
    </clipPath>
    <clipPath
       clipPathUnits="userSpaceOnUse"
       id="clipPath330">
      <path
         d="m 0,841.65 0,-842.27958 595.32,0 0,842.27958"
         id="path332"
         inkscape:connector-curvature="0" />
    </clipPath>
    <clipPath
       clipPathUnits="userSpaceOnUse"
       id="clipPath320">
      <path
         d="m 0,841.65 0,-842.27958 595.32,0 0,842.27958"
         id="path322"
         inkscape:connector-curvature="0" />
    </clipPath>
    <clipPath
       clipPathUnits="userSpaceOnUse"
       id="clipPath310">
      <path
         d="m 0,841.65 0,-842.27958 595.32,0 0,842.27958"
         id="path312"
         inkscape:connector-curvature="0" />
    </clipPath>
    <clipPath
       clipPathUnits="userSpaceOnUse"
       id="clipPath300">
      <path
         d="m 0,841.65 0,-842.27958 595.32,0 0,842.27958"
         id="path302"
         inkscape:connector-curvature="0" />
    </clipPath>
    <clipPath
       clipPathUnits="userSpaceOnUse"
       id="clipPath290">
      <path
         d="m 0,841.65 0,-842.27958 595.32,0 0,842.27958"
         id="path292"
         inkscape:connector-curvature="0" />
    </clipPath>
    <clipPath
       clipPathUnits="userSpaceOnUse"
       id="clipPath280">
      <path
         d="m 0,841.65 0,-842.27958 595.32,0 0,842.27958"
         id="path282"
         inkscape:connector-curvature="0" />
    </clipPath>
    <clipPath
       clipPathUnits="userSpaceOnUse"
       id="clipPath270">
      <path
         d="m 0,841.65 0,-842.27958 595.32,0 0,842.27958"
         id="path272"
         inkscape:connector-curvature="0" />
    </clipPath>
    <clipPath
       clipPathUnits="userSpaceOnUse"
       id="clipPath260">
      <path
         d="m 0,841.65 0,-842.27958 595.32,0 0,842.27958"
         id="path262"
         inkscape:connector-curvature="0" />
    </clipPath>
    <clipPath
       clipPathUnits="userSpaceOnUse"
       id="clipPath250">
      <path
         d="m 0,841.65 0,-842.27958 595.32,0 0,842.27958"
         id="path252"
         inkscape:connector-curvature="0" />
    </clipPath>
    <clipPath
       clipPathUnits="userSpaceOnUse"
       id="clipPath240">
      <path
         d="m 0,841.65 0,-842.27958 595.32,0 0,842.27958"
         id="path242"
         inkscape:connector-curvature="0" />
    </clipPath>
    <clipPath
       clipPathUnits="userSpaceOnUse"
       id="clipPath230">
      <path
         d="m 0,841.65 0,-842.27958 595.32,0 0,842.27958"
         id="path232"
         inkscape:connector-curvature="0" />
    </clipPath>
    <clipPath
       clipPathUnits="userSpaceOnUse"
       id="clipPath220">
      <path
         d="m 0,841.65 0,-842.27958 595.32,0 0,842.27958"
         id="path222"
         inkscape:connector-curvature="0" />
    </clipPath>
    <clipPath
       clipPathUnits="userSpaceOnUse"
       id="clipPath210">
      <path
         d="m 0,841.65 0,-842.27958 595.32,0 0,842.27958"
         id="path212"
         inkscape:connector-curvature="0" />
    </clipPath>
    <clipPath
       clipPathUnits="userSpaceOnUse"
       id="clipPath200">
      <path
         d="m 0,841.65 0,-842.27958 595.32,0 0,842.27958"
         id="path202"
         inkscape:connector-curvature="0" />
    </clipPath>
    <clipPath
       clipPathUnits="userSpaceOnUse"
       id="clipPath190">
      <path
         d="m 0,841.65 0,-842.27958 595.32,0 0,842.27958"
         id="path192"
         inkscape:connector-curvature="0" />
    </clipPath>
    <clipPath
       clipPathUnits="userSpaceOnUse"
       id="clipPath180">
      <path
         d="m 0,841.65 0,-842.27958 595.32,0 0,842.27958"
         id="path182"
         inkscape:connector-curvature="0" />
    </clipPath>
    <clipPath
       clipPathUnits="userSpaceOnUse"
       id="clipPath170">
      <path
         d="m 0,841.65 0,-842.27958 595.32,0 0,842.27958"
         id="path172"
         inkscape:connector-curvature="0" />
    </clipPath>
    <clipPath
       clipPathUnits="userSpaceOnUse"
       id="clipPath160">
      <path
         d="m 0,841.65 0,-842.27958 595.32,0 0,842.27958"
         id="path162"
         inkscape:connector-curvature="0" />
    </clipPath>
    <clipPath
       clipPathUnits="userSpaceOnUse"
       id="clipPath150">
      <path
         d="m 0,841.65 0,-842.27958 595.32,0 0,842.27958"
         id="path152"
         inkscape:connector-curvature="0" />
    </clipPath>
    <clipPath
       clipPathUnits="userSpaceOnUse"
       id="clipPath140">
      <path
         d="m 0,841.65 0,-842.27958 595.32,0 0,842.27958"
         id="path142"
         inkscape:connector-curvature="0" />
    </clipPath>
    <clipPath
       clipPathUnits="userSpaceOnUse"
       id="clipPath130">
      <path
         d="m 0,841.65 0,-842.27958 595.32,0 0,842.27958"
         id="path132"
         inkscape:connector-curvature="0" />
    </clipPath>
    <clipPath
       clipPathUnits="userSpaceOnUse"
       id="clipPath120">
      <path
         d="m 0,841.65 0,-842.27958 595.32,0 0,842.27958"
         id="path122"
         inkscape:connector-curvature="0" />
    </clipPath>
    <clipPath
       clipPathUnits="userSpaceOnUse"
       id="clipPath110">
      <path
         d="m 0,841.65 0,-842.27958 595.32,0 0,842.27958"
         id="path112"
         inkscape:connector-curvature="0" />
    </clipPath>
    <clipPath
       clipPathUnits="userSpaceOnUse"
       id="clipPath100">
      <path
         d="m 0,841.65 0,-842.27958 595.32,0 0,842.27958"
         id="path102"
         inkscape:connector-curvature="0" />
    </clipPath>
    <clipPath
       clipPathUnits="userSpaceOnUse"
       id="clipPath90">
      <path
         d="m 0,841.65 0,-842.27958 595.32,0 0,842.27958"
         id="path92"
         inkscape:connector-curvature="0" />
    </clipPath>
    <clipPath
       clipPathUnits="userSpaceOnUse"
       id="clipPath80">
      <path
         d="m 0,841.65 0,-842.27958 595.32,0 0,842.27958"
         id="path82"
         inkscape:connector-curvature="0" />
    </clipPath>
    <clipPath
       clipPathUnits="userSpaceOnUse"
       id="clipPath70">
      <path
         d="m 0,841.65 0,-842.27958 595.32,0 0,842.27958"
         id="path72"
         inkscape:connector-curvature="0" />
    </clipPath>
    <clipPath
       clipPathUnits="userSpaceOnUse"
       id="clipPath60">
      <path
         d="m 0,841.65 0,-842.27958 595.32,0 0,842.27958"
         id="path62"
         inkscape:connector-curvature="0" />
    </clipPath>
    <clipPath
       clipPathUnits="userSpaceOnUse"
       id="clipPath50">
      <path
         d="m 0,841.65 0,-842.27958 595.32,0 0,842.27958"
         id="path52"
         inkscape:connector-curvature="0"
         style="clip-rule:evenodd" />
    </clipPath>
    <clipPath
       clipPathUnits="userSpaceOnUse"
       id="clipPath40">
      <path
         d="m 0,841.65 0,-842.27958 595.32,0 0,842.27958"
         id="path42"
         inkscape:connector-curvature="0"
         style="clip-rule:evenodd" />
    </clipPath>
  </defs>
  <sodipodi:namedview
     id="base"
     pagecolor="#ffffff"
     bordercolor="#666666"
     borderopacity="1.0"
     inkscape:pageopacity="0.0"
     inkscape:pageshadow="2"
     inkscape:zoom="4.1"
     inkscape:cx="165.2439"
     inkscape:cy="56.540882"
     inkscape:document-units="px"
     inkscape:current-layer="layer1"
     showgrid="false"
     units="px"
     inkscape:window-width="1920"
     inkscape:window-height="1031"
     inkscape:window-x="0"
     inkscape:window-y="1"
     inkscape:window-maximized="1" />
  <metadata
     id="metadata8544">
    <rdf:RDF>
      <cc:Work
         rdf:about="">
        <dc:format>image/svg+xml</dc:format>
        <dc:type
           rdf:resource="http://purl.org/dc/dcmitype/StillImage" />
        <dc:title></dc:title>
      </cc:Work>
    </rdf:RDF>
  </metadata>
  <g
     inkscape:label="Layer 1"
     inkscape:groupmode="layer"
     id="layer1"
     transform="translate(0,-902.36216)">
    <g
       id="g9549"
       transform="matrix(1.6919843,0,0,1.6919843,-429.2801,110.45328)">
      <g
         id="g36"
         transform="matrix(1.2489978,0,0,-1.2505756,223.1129,1457.2534)">
        <g
           clip-path="url(#clipPath40)"
           id="g38">
          <path
             inkscape:connector-curvature="0"
             id="path44"
             style="fill:#303030;fill-opacity:1;fill-rule:nonzero;stroke:none"
             d="m 121.3,750.21 0,0 0,-3.83 c -0.9,-0.6 -1.88,-0.9 -3.23,-0.9 -2.47,0 -4.57,1.8 -4.57,4.43 0,2.7 2.17,4.5 4.57,4.5 1.28,0 2.25,-0.38 3.08,-0.9 l -0.68,-1.2 c -0.67,0.45 -1.5,0.75 -2.32,0.75 -1.95,0 -3.08,-1.43 -3.08,-3.15 0,-1.8 1.35,-3.16 3.08,-3.16 0.75,0 1.27,0.15 1.72,0.45 l 0,1.66 -2.02,0 0,1.35 3.45,0 z" />
        </g>
      </g>
      <g
         id="g46"
         transform="matrix(1.2489978,0,0,-1.2505756,223.1129,1457.2534)">
        <g
           clip-path="url(#clipPath50)"
           id="g48">
          <path
             inkscape:connector-curvature="0"
             id="path54"
             style="fill:#303030;fill-opacity:1;fill-rule:nonzero;stroke:none"
             d="m 127.75,745.55 0,0 -1.87,3.16 c -0.15,0 -0.3,0 -0.45,0 -0.3,0 -0.6,0 -0.9,0 l 0,-3.16 -1.43,0 0,8.63 c 0.67,0.08 1.35,0.15 2.25,0.15 2.48,0 3.53,-1.2 3.53,-2.7 0,-1.12 -0.6,-2.1 -1.65,-2.55 l 2.25,-3.53 -1.73,0 z m -2.17,7.43 0,0 c -0.38,0 -0.75,0 -1.05,-0.07 l 0,-2.93 c 0.3,-0.07 0.6,-0.07 0.9,-0.07 1.27,0 1.95,0.6 1.95,1.65 0,0.82 -0.68,1.42 -1.8,1.42 z" />
        </g>
      </g>
      <g
         id="g56"
         transform="matrix(1.2489978,0,0,-1.2505756,223.1129,1457.2534)">
        <g
           clip-path="url(#clipPath60)"
           id="g58">
          <path
             inkscape:connector-curvature="0"
             id="path64"
             style="fill:#303030;fill-opacity:1;fill-rule:nonzero;stroke:none"
             d="m 130.68,745.55 0,0 0,8.71 5.25,0 0,-1.35 -3.83,0 0,-2.25 3.45,0 0,-1.28 -3.45,0 0,-2.48 3.83,0 0,-1.35 -5.25,0 z" />
        </g>
      </g>
      <g
         id="g66"
         transform="matrix(1.2489978,0,0,-1.2505756,223.1129,1457.2534)">
        <g
           clip-path="url(#clipPath70)"
           id="g68">
          <path
             inkscape:connector-curvature="0"
             id="path74"
             style="fill:#303030;fill-opacity:1;fill-rule:nonzero;stroke:none"
             d="m 137.8,745.55 0,0 0,8.71 5.25,0 0,-1.35 -3.82,0 0,-2.25 3.45,0 0,-1.28 -3.45,0 0,-2.48 3.82,0 0,-1.35 -5.25,0 z" />
        </g>
      </g>
      <g
         id="g76"
         transform="matrix(1.2489978,0,0,-1.2505756,223.1129,1457.2534)">
        <g
           clip-path="url(#clipPath80)"
           id="g78">
          <path
             inkscape:connector-curvature="0"
             id="path84"
             style="fill:#303030;fill-opacity:1;fill-rule:nonzero;stroke:none"
             d="m 151.83,745.4 0,0 -5.48,5.78 0,-5.63 -1.42,0 0,8.86 0.22,0 5.33,-5.63 0,5.48 1.5,0 0,-8.78 -0.15,-0.08 z" />
        </g>
      </g>
      <g
         id="g86"
         transform="matrix(1.2489978,0,0,-1.2505756,223.1129,1457.2534)">
        <g
           clip-path="url(#clipPath90)"
           id="g88">
          <path
             inkscape:connector-curvature="0"
             id="path94"
             style="fill:#303030;fill-opacity:1;fill-rule:nonzero;stroke:none"
             d="m 118.15,732.8 0,0 c -2.7,0 -4.65,1.88 -4.65,4.5 0,2.55 1.95,4.5 4.65,4.5 1.12,0 2.1,-0.37 2.85,-0.82 l -0.53,-1.28 c -0.67,0.45 -1.57,0.68 -2.32,0.68 -1.88,0 -3.08,-1.28 -3.08,-3.08 0,-1.8 1.2,-3.07 3.08,-3.07 0.82,0 1.72,0.22 2.4,0.67 l 0.45,-1.27 c -0.75,-0.45 -1.73,-0.83 -2.85,-0.83 z" />
        </g>
      </g>
      <g
         id="g96"
         transform="matrix(1.2489978,0,0,-1.2505756,223.1129,1457.2534)">
        <g
           clip-path="url(#clipPath100)"
           id="g98">
          <path
             inkscape:connector-curvature="0"
             id="path104"
             style="fill:#303030;fill-opacity:1;fill-rule:nonzero;stroke:none"
             d="m 122.42,732.95 0,0 0,8.7 1.43,0 0,-7.35 3.83,0 0,-1.35 -5.26,0 z" />
        </g>
      </g>
      <g
         id="g106"
         transform="matrix(1.2489978,0,0,-1.2505756,223.1129,1457.2534)">
        <g
           clip-path="url(#clipPath110)"
           id="g108">
          <path
             inkscape:connector-curvature="0"
             id="path114"
             style="fill:#303030;fill-opacity:1;fill-rule:nonzero;stroke:none"
             d="m 129.03,741.65 0,0 1.42,0 0,-8.7 -1.42,0 0,8.7 z" />
        </g>
      </g>
      <g
         id="g116"
         transform="matrix(1.2489978,0,0,-1.2505756,223.1129,1457.2534)">
        <g
           clip-path="url(#clipPath120)"
           id="g118">
          <path
             inkscape:connector-curvature="0"
             id="path124"
             style="fill:#303030;fill-opacity:1;fill-rule:nonzero;stroke:none"
             d="m 139.75,732.95 0,0 -0.15,5.18 -2.7,-4.13 -0.15,0 -2.77,4.2 -0.08,-5.25 -1.5,0 0.38,8.78 0.22,0.07 3.83,-5.77 3.75,5.77 0.3,-0.07 0.3,-8.78 -1.43,0 z" />
        </g>
      </g>
      <g
         id="g126"
         transform="matrix(1.2489978,0,0,-1.2505756,223.1129,1457.2534)">
        <g
           clip-path="url(#clipPath130)"
           id="g128">
          <path
             inkscape:connector-curvature="0"
             id="path134"
             style="fill:#303030;fill-opacity:1;fill-rule:nonzero;stroke:none"
             d="m 148.75,732.95 0,0 -0.82,2.03 -3.45,0 -0.83,-2.03 -1.57,0 4.05,8.78 0.22,0 3.98,-8.78 -1.58,0 z m -2.55,6.08 0,0 -1.27,-2.93 2.47,0 -1.2,2.93 z" />
        </g>
      </g>
      <g
         id="g136"
         transform="matrix(1.2489978,0,0,-1.2505756,223.1129,1457.2534)">
        <g
           clip-path="url(#clipPath140)"
           id="g138">
          <path
             inkscape:connector-curvature="0"
             id="path144"
             style="fill:#303030;fill-opacity:1;fill-rule:nonzero;stroke:none"
             d="m 154.16,740.3 0,0 0,-7.35 -1.43,0 0,7.35 -2.77,0 0,1.35 6.97,0 0,-1.35 -2.77,0 z" />
        </g>
      </g>
      <g
         id="g146"
         transform="matrix(1.2489978,0,0,-1.2505756,223.1129,1457.2534)">
        <g
           clip-path="url(#clipPath150)"
           id="g148">
          <path
             inkscape:connector-curvature="0"
             id="path154"
             style="fill:#303030;fill-opacity:1;fill-rule:nonzero;stroke:none"
             d="m 158.28,732.95 0,0 0,8.7 5.33,0 0,-1.35 -3.83,0 0,-2.25 3.45,0 0,-1.35 -3.45,0 0,-2.4 3.83,0 0,-1.35 -5.33,0 z" />
        </g>
      </g>
      <g
         id="g156"
         transform="matrix(1.2489978,0,0,-1.2505756,223.1129,1457.2534)">
        <g
           clip-path="url(#clipPath160)"
           id="g158">
          <path
             inkscape:connector-curvature="0"
             id="path164"
             style="fill:#303030;fill-opacity:1;fill-rule:nonzero;stroke:none"
             d="m 115.3,727.63 0,0 0,-2.48 3.3,0 0,-1.35 -3.3,0 0,-3.45 -1.5,0 0,8.63 5.25,0 0,-1.35 -3.75,0 z" />
        </g>
      </g>
      <g
         id="g166"
         transform="matrix(1.2489978,0,0,-1.2505756,223.1129,1457.2534)">
        <g
           clip-path="url(#clipPath170)"
           id="g168">
          <path
             inkscape:connector-curvature="0"
             id="path174"
             style="fill:#303030;fill-opacity:1;fill-rule:nonzero;stroke:none"
             d="m 123.77,720.2 0,0 c -2.1,0 -3.45,1.2 -3.45,3.45 l 0,5.33 1.5,0 0,-5.26 c 0,-1.42 0.75,-2.17 2.03,-2.17 1.2,0 1.95,0.75 1.95,2.17 l 0,5.26 1.5,0 0,-5.33 c 0,-2.18 -1.35,-3.45 -3.53,-3.45 z" />
        </g>
      </g>
      <g
         id="g176"
         transform="matrix(1.2489978,0,0,-1.2505756,223.1129,1457.2534)">
        <g
           clip-path="url(#clipPath180)"
           id="g178">
          <path
             inkscape:connector-curvature="0"
             id="path184"
             style="fill:#303030;fill-opacity:1;fill-rule:nonzero;stroke:none"
             d="m 136.08,720.12 0,0 -5.4,5.78 0,-5.55 -1.5,0 0,8.78 0.22,0.07 5.4,-5.7 0,5.48 1.43,0 0,-8.78 -0.15,-0.08 z" />
        </g>
      </g>
      <g
         id="g186"
         transform="matrix(1.2489978,0,0,-1.2505756,223.1129,1457.2534)">
        <g
           clip-path="url(#clipPath190)"
           id="g188">
          <path
             inkscape:connector-curvature="0"
             id="path194"
             style="fill:#303030;fill-opacity:1;fill-rule:nonzero;stroke:none"
             d="m 140.73,720.27 0,0 c -0.9,0 -1.58,0.08 -2.48,0.15 l 0,8.48 c 0.83,0.15 1.58,0.15 2.4,0.15 3.45,0 5.18,-1.95 5.18,-4.27 0,-2.48 -1.65,-4.51 -5.1,-4.51 z m 0.15,7.51 0,0 c -0.45,0 -0.83,0 -1.13,-0.08 l 0,-6.08 c 0.38,-0.07 0.68,-0.07 1.2,-0.07 2.25,0 3.23,1.35 3.23,3.23 0,1.8 -1.13,3 -3.3,3 z" />
        </g>
      </g>
      <g
         id="g196"
         transform="matrix(1.2489978,0,0,-1.2505756,223.1129,1457.2534)">
        <g
           clip-path="url(#clipPath200)"
           id="g198">
          <path
             inkscape:connector-curvature="0"
             id="path204"
             style="fill:#2da242;fill-opacity:1;fill-rule:nonzero;stroke:none"
             d="m 74.415,790.79 0,0 13.578,-0.3 4.426,-4.58" />
        </g>
      </g>
      <g
         id="g206"
         transform="matrix(1.2489978,0,0,-1.2505756,223.1129,1457.2534)">
        <g
           clip-path="url(#clipPath210)"
           id="g208">
          <path
             inkscape:connector-curvature="0"
             id="path214"
             style="fill:#2da242;fill-opacity:1;fill-rule:nonzero;stroke:none"
             d="m 74.415,790.79 0,0 11.702,-0.3 c 1.201,0 2.326,-0.53 3.151,-1.35 l 3.151,-3.15" />
        </g>
      </g>
      <g
         id="g216"
         transform="matrix(1.2489978,0,0,-1.2505756,223.1129,1457.2534)">
        <g
           clip-path="url(#clipPath220)"
           id="g218">
          <path
             inkscape:connector-curvature="0"
             id="path224"
             style="fill:#41aa4c;fill-opacity:1;fill-rule:nonzero;stroke:none"
             d="m 57.912,758.83 0,0 14.778,6.15 1.275,-17.7" />
        </g>
      </g>
      <g
         id="g226"
         transform="matrix(1.2489978,0,0,-1.2505756,223.1129,1457.2534)">
        <g
           clip-path="url(#clipPath230)"
           id="g228">
          <path
             inkscape:connector-curvature="0"
             id="path234"
             style="fill:#377d7a;fill-opacity:1;fill-rule:nonzero;stroke:none"
             d="m 92.044,741.58 0,0 10.876,13.05 -13.277,5.03" />
        </g>
      </g>
      <g
         id="g236"
         transform="matrix(1.2489978,0,0,-1.2505756,223.1129,1457.2534)">
        <g
           clip-path="url(#clipPath240)"
           id="g238">
          <path
             inkscape:connector-curvature="0"
             id="path244"
             style="fill:#309085;fill-opacity:1;fill-rule:nonzero;stroke:none"
             d="m 57.912,758.83 0,0 2.175,-18.3 13.728,6.98" />
        </g>
      </g>
      <g
         id="g246"
         transform="matrix(1.2489978,0,0,-1.2505756,223.1129,1457.2534)">
        <g
           clip-path="url(#clipPath250)"
           id="g248">
          <path
             inkscape:connector-curvature="0"
             id="path254"
             style="fill:#245974;fill-opacity:1;fill-rule:nonzero;stroke:none"
             d="m 103.82,744.65 0,0 -11.851,-3.07 -15.679,-6.83 12.903,-1.12" />
        </g>
      </g>
      <g
         id="g256"
         transform="matrix(1.2489978,0,0,-1.2505756,223.1129,1457.2534)">
        <g
           clip-path="url(#clipPath260)"
           id="g258">
          <path
             inkscape:connector-curvature="0"
             id="path264"
             style="fill:#2d8e81;fill-opacity:1;fill-rule:nonzero;stroke:none"
             d="m 73.815,747.51 0,0 18.304,-5.93 -2.326,18.08" />
        </g>
      </g>
      <g
         id="g266"
         transform="matrix(1.2489978,0,0,-1.2505756,223.1129,1457.2534)">
        <g
           clip-path="url(#clipPath270)"
           id="g268">
          <path
             inkscape:connector-curvature="0"
             id="path274"
             style="fill:#41aa4c;fill-opacity:1;fill-rule:nonzero;stroke:none"
             d="m 89.793,759.66 0,0 -17.178,5.32 11.702,13.21" />
        </g>
      </g>
      <g
         id="g276"
         transform="matrix(1.2489978,0,0,-1.2505756,223.1129,1457.2534)">
        <g
           clip-path="url(#clipPath280)"
           id="g278">
          <path
             inkscape:connector-curvature="0"
             id="path284"
             style="fill:#65b53c;fill-opacity:1;fill-rule:nonzero;stroke:none"
             d="m 63.613,777.59 0,0 20.704,0.6 -11.627,-13.21 -9.077,12.61 z" />
        </g>
      </g>
      <g
         id="g286"
         transform="matrix(1.2489978,0,0,-1.2505756,223.1129,1457.2534)">
        <g
           clip-path="url(#clipPath290)"
           id="g288">
          <path
             inkscape:connector-curvature="0"
             id="path294"
             style="fill:#58ac35;fill-opacity:1;fill-rule:nonzero;stroke:none"
             d="m 51.01,753.73 0,0 6.902,5.1 -6.677,12.46" />
        </g>
      </g>
      <g
         id="g296"
         transform="matrix(1.2489978,0,0,-1.2505756,223.1129,1457.2534)">
        <g
           clip-path="url(#clipPath300)"
           id="g298">
          <path
             inkscape:connector-curvature="0"
             id="path304"
             style="fill:#66c430;fill-opacity:1;fill-rule:nonzero;stroke:none"
             d="m 51.235,771.29 0,0 6.677,-12.46 5.776,18.83" />
        </g>
      </g>
      <g
         id="g306"
         transform="matrix(1.2489978,0,0,-1.2505756,223.1129,1457.2534)">
        <g
           clip-path="url(#clipPath310)"
           id="g308">
          <path
             inkscape:connector-curvature="0"
             id="path314"
             style="fill:#84cf50;fill-opacity:1;fill-rule:nonzero;stroke:none"
             d="m 51.235,771.21 0,0 12.453,6.45 -3.226,7.28" />
        </g>
      </g>
      <g
         id="g316"
         transform="matrix(1.2489978,0,0,-1.2505756,223.1129,1457.2534)">
        <g
           clip-path="url(#clipPath320)"
           id="g318">
          <path
             inkscape:connector-curvature="0"
             id="path324"
             style="fill:#3ea83d;fill-opacity:1;fill-rule:nonzero;stroke:none"
             d="m 57.912,758.83 0,0 5.701,18.76 9.077,-12.61" />
        </g>
      </g>
      <g
         id="g326"
         transform="matrix(1.2489978,0,0,-1.2505756,223.1129,1457.2534)">
        <g
           clip-path="url(#clipPath330)"
           id="g328">
          <path
             inkscape:connector-curvature="0"
             id="path334"
             style="fill:#227e33;fill-opacity:1;fill-rule:nonzero;stroke:none"
             d="m 51.01,753.73 0,0 6.902,5.1 2.175,-18.3" />
        </g>
      </g>
      <g
         id="g336"
         transform="matrix(1.2489978,0,0,-1.2505756,223.1129,1457.2534)">
        <g
           clip-path="url(#clipPath340)"
           id="g338">
          <path
             inkscape:connector-curvature="0"
             id="path344"
             style="fill:#7ccc40;fill-opacity:1;fill-rule:nonzero;stroke:none"
             d="m 63.613,777.59 0,0 10.427,13.42 10.352,-12.82" />
        </g>
      </g>
      <g
         id="g346"
         transform="matrix(1.2489978,0,0,-1.2505756,223.1129,1457.2534)">
        <g
           clip-path="url(#clipPath350)"
           id="g348">
          <path
             inkscape:connector-curvature="0"
             id="path354"
             style="fill:#66c430;fill-opacity:1;fill-rule:nonzero;stroke:none"
             d="m 60.462,784.94 0,0 13.578,6.07 -10.427,-13.42" />
        </g>
      </g>
      <g
         id="g356"
         transform="matrix(1.2489978,0,0,-1.2505756,223.1129,1457.2534)">
        <g
           clip-path="url(#clipPath360)"
           id="g358">
          <path
             inkscape:connector-curvature="0"
             id="path364"
             style="fill:#2da242;fill-opacity:1;fill-rule:nonzero;stroke:none"
             d="m 73.815,747.51 0,0 -1.2,17.47 17.178,-5.32" />
        </g>
      </g>
      <g
         id="g366"
         transform="matrix(1.2489978,0,0,-1.2505756,223.1129,1457.2534)">
        <g
           clip-path="url(#clipPath370)"
           id="g368">
          <path
             inkscape:connector-curvature="0"
             id="path374"
             style="fill:#43758d;fill-opacity:1;fill-rule:nonzero;stroke:none"
             d="m 76.29,734.75 0,0 -2.475,12.76 18.229,-5.93" />
        </g>
      </g>
      <g
         id="g376"
         transform="matrix(1.2489978,0,0,-1.2505756,223.1129,1457.2534)">
        <g
           clip-path="url(#clipPath380)"
           id="g378">
          <path
             inkscape:connector-curvature="0"
             id="path384"
             style="fill:#43758d;fill-opacity:1;fill-rule:nonzero;stroke:none"
             d="m 60.087,740.53 0,0 16.278,-5.78 12.903,-1.12 -18.829,-0.08" />
        </g>
      </g>
      <g
         id="g386"
         transform="matrix(1.2489978,0,0,-1.2505756,223.1129,1457.2534)">
        <g
           clip-path="url(#clipPath390)"
           id="g388">
          <path
             inkscape:connector-curvature="0"
             id="path394"
             style="fill:#42988c;fill-opacity:1;fill-rule:nonzero;stroke:none"
             d="m 89.793,759.66 0,0 13.127,-5.03 -1.35,17.33" />
        </g>
      </g>
      <g
         id="g396"
         transform="matrix(1.2489978,0,0,-1.2505756,223.1129,1457.2534)">
        <g
           clip-path="url(#clipPath400)"
           id="g398">
          <path
             inkscape:connector-curvature="0"
             id="path404"
             style="fill:#005b52;fill-opacity:1;fill-rule:nonzero;stroke:none"
             d="m 108.85,762.88 0,0 -5.85,17.26 -1.43,-8.18" />
        </g>
      </g>
      <g
         clip-path="url(#clipPath410)"
         id="g408"
         transform="matrix(1.2489978,0,0,-1.2505756,223.1129,1457.2534)">
        <path
           inkscape:connector-curvature="0"
           id="path414"
           style="fill:#2da242;fill-opacity:1;fill-rule:nonzero;stroke:none"
           d="m 89.793,759.66 0,0 11.777,12.3 -17.253,6.23" />
      </g>
      <g
         id="g416"
         transform="matrix(1.2489978,0,0,-1.2505756,223.1129,1457.2534)">
        <g
           clip-path="url(#clipPath420)"
           id="g418">
          <path
             inkscape:connector-curvature="0"
             id="path424"
             style="fill:#4bae53;fill-opacity:1;fill-rule:nonzero;stroke:none"
             d="m 74.04,791.01 0,0 13.803,-0.3 4.501,-4.57" />
        </g>
      </g>
      <g
         id="g426"
         transform="matrix(1.2489978,0,0,-1.2505756,223.1129,1457.2534)">
        <g
           clip-path="url(#clipPath430)"
           id="g428">
          <path
             inkscape:connector-curvature="0"
             id="path434"
             style="fill:#66c430;fill-opacity:1;fill-rule:nonzero;stroke:none"
             d="m 84.317,778.19 0,0 -10.277,12.82 18.379,-4.87" />
        </g>
      </g>
      <g
         id="g436"
         transform="matrix(1.2489978,0,0,-1.2505756,223.1129,1457.2534)">
        <g
           clip-path="url(#clipPath440)"
           id="g438">
          <path
             inkscape:connector-curvature="0"
             id="path444"
             style="fill:#58ac35;fill-opacity:1;fill-rule:nonzero;stroke:none"
             d="m 84.317,778.19 0,0 8.027,7.95 9.226,-14.18" />
        </g>
      </g>
      <g
         id="g446"
         transform="matrix(1.2489978,0,0,-1.2505756,223.1129,1457.2534)">
        <g
           clip-path="url(#clipPath450)"
           id="g448">
          <path
             inkscape:connector-curvature="0"
             id="path454"
             style="fill:#27953d;fill-opacity:1;fill-rule:nonzero;stroke:none"
             d="m 87.843,790.71 0,0 4.501,-4.57 9.226,-14.18 1.43,8.18" />
        </g>
      </g>
      <g
         id="g456"
         transform="matrix(1.2489978,0,0,-1.2505756,223.1129,1457.2534)">
        <g
           clip-path="url(#clipPath460)"
           id="g458">
          <path
             inkscape:connector-curvature="0"
             id="path464"
             style="fill:#376e88;fill-opacity:1;fill-rule:nonzero;stroke:none"
             d="m 60.087,740.53 0,0 13.728,6.98 2.55,-12.76" />
        </g>
      </g>
      <g
         id="g466"
         transform="matrix(1.2489978,0,0,-1.2505756,223.1129,1457.2534)">
        <g
           clip-path="url(#clipPath470)"
           id="g468">
          <path
             inkscape:connector-curvature="0"
             id="path474"
             style="fill:#356c86;fill-opacity:1;fill-rule:nonzero;stroke:none"
             d="m 92.044,741.58 0,0 11.776,3.07 -0.97,9.98" />
        </g>
      </g>
      <g
         id="g476"
         transform="matrix(1.2489978,0,0,-1.2505756,223.1129,1457.2534)">
        <g
           clip-path="url(#clipPath480)"
           id="g478">
          <path
             inkscape:connector-curvature="0"
             id="path484"
             style="fill:#26813c;fill-opacity:1;fill-rule:nonzero;stroke:none"
             d="m 102.85,754.63 0,0 6,8.25 -7.28,9.08" />
        </g>
      </g>
      <g
         id="g486"
         transform="matrix(1.2489978,0,0,-1.2505756,223.1129,1457.2534)">
        <g
           clip-path="url(#clipPath490)"
           id="g488">
          <path
             inkscape:connector-curvature="0"
             id="path494"
             style="fill:#34627c;fill-opacity:1;fill-rule:nonzero;stroke:none"
             d="m 102.77,754.63 0,0 1.05,-9.98 5.03,18.23" />
        </g>
      </g>
    </g>
  </g>
</svg>
