<svg xmlns="http://www.w3.org/2000/svg" width="434" height="426" viewBox="0 0 434 426">
  <g id="Group_4" data-name="Group 4" transform="translate(-1564 -267.5)">
    <g id="Group_2" data-name="Group 2" transform="translate(541 8)">
      <circle id="Ellipse_9" data-name="Ellipse 9" cx="207.5" cy="207.5" r="207.5" transform="translate(1036 265)" fill="none" stroke="#fff" stroke-width="11"/>
    </g>
    <text id="_" data-name="በኢትዮጵያ ፌዴራላዊ ዲሞክራሲያዊ ሪፓብሊክ
" transform="translate(1564 517.039)" fill="#fff" font-size="14.04" font-family="AbyssinicaSIL-Regular, Abyssinica SIL" letter-spacing="0.016em"><tspan x="94.462" y="14">በኢትዮጵያ</tspan><tspan y="14" font-family="Helvetica"> </tspan><tspan y="14">ፌዴራላዊ</tspan><tspan y="14" font-family="Helvetica"> </tspan><tspan y="14">ዲሞክራሲያዊ</tspan><tspan y="14" font-family="Helvetica"> </tspan><tspan y="14">ሪፓብሊክ</tspan><tspan y="14" font-family="Helvetica"></tspan></text>
    <text id="_2" data-name="የገንዘብ ሚኒስቴር" transform="translate(1616.428 521.62)" fill="#fff" font-size="41.17" font-family="AbyssinicaSIL-Regular, Abyssinica SIL" letter-spacing="-0.016em"><tspan x="39.733" y="42">የገንዘ</tspan><tspan y="42" letter-spacing="-0.059em">ብ</tspan><tspan y="42" font-size="42.17" font-family="Helvetica" letter-spacing="-0.059em"> </tspan><tspan y="42" font-size="42.17" letter-spacing="-0.059em">ሚ</tspan><tspan y="42" font-size="42.17">ኒስቴር</tspan></text>
    <text id="FEDERAL_DEMOCRATIC_REPUBLIC_OF_ETHIOPIA_MINISTRY_OF_FINANCE" data-name="FEDERAL DEMOCRATIC REPUBLIC OF ETHIOPIA 
MINISTRY OF FINANCE" transform="translate(1637 536.5)" fill="#fff" font-size="10.17" font-family="ArialRoundedMTBold, Arial Rounded MT Bold"><tspan x="23.146" y="39">FEDERAL DEMOCRATIC REPUBLIC OF ETHIOPIA</tspan><tspan y="39" font-size="50" font-family="Helvetica"> </tspan><tspan font-size="22.08"><tspan x="20.66" y="61.33">MINISTRY OF FINANCE</tspan></tspan></text>
    <g id="Component_2_2" data-name="Component 2 – 2" transform="translate(1678.089 353.639)">
      <path id="Union_7" data-name="Union 7" d="M0,154.036l24.874-21.374H180.633l26.521,21.374Zm27.912-26.675a3,3,0,1,1,0-6h152a3,3,0,0,1,0,6Zm135-11h-23V58.539L147.7,48.92a5.485,5.485,0,1,0-.976-1.179l-6.813,8.413V11.719L162.911,0V116.362Zm-32,0h-23v-38l5.268,2.8a5.5,5.5,0,1,0,9.67-1.552l8.063-9.958v46.709Zm-33,0h-23V79.171l8.622-8.622a5.5,5.5,0,0,0,7.219-1.31l7.159,3.806v43.316Zm-33,0h-23V61.652l23-11.719V87.05l-8.322,8.322a5.5,5.5,0,1,0,2.322,4.489A5.516,5.516,0,0,0,57.685,96.4l7.227-7.227v27.19h0Zm48.921-36.55-5.921-3.148V28.023l23-11.719V67.27L121.8,78.526a5.5,5.5,0,0,0-7.962,1.285h0ZM74.911,77.048V44.838l23-11.719V71.347L91.5,67.941a5.5,5.5,0,1,0-9.134,1.651l-7.457,7.457,0,0Z" fill="#fff" opacity="0.997"/>
    </g>
    <circle id="Ellipse_10" data-name="Ellipse 10" cx="192.5" cy="192.5" r="192.5" transform="translate(1592.5 288.5)" fill="none" stroke="#fff" stroke-width="1"/>
    <circle id="Ellipse_11" data-name="Ellipse 11" cx="196.5" cy="196.5" r="196.5" transform="translate(1588.5 284.5)" fill="none" stroke="#fff" stroke-width="1"/>
    <circle id="Ellipse_12" data-name="Ellipse 12" cx="200.5" cy="200.5" r="200.5" transform="translate(1584.5 280.5)" fill="none" stroke="#fff" stroke-width="1"/>
  </g>
</svg>
